<svg width="85" height="84" viewBox="0 0 85 84" fill="none" xmlns="http://www.w3.org/2000/svg">
<path d="M25.2646 7.37016C28.0494 6.95484 30.7218 5.98215 33.1221 4.51029C38.8762 0.981771 46.1238 0.981771 51.8779 4.51029C54.2782 5.98215 56.9506 6.95484 59.7354 7.37016C66.4114 8.36583 71.9634 13.0246 74.1032 19.4262C74.9958 22.0966 76.4178 24.5595 78.2841 26.6677C82.7582 31.7216 84.0167 38.8592 81.541 45.1386C80.5083 47.758 80.0145 50.5587 80.089 53.3733C80.2678 60.1208 76.6439 66.3975 70.7111 69.6164C68.2363 70.9591 66.0577 72.7872 64.3056 74.9912C60.1054 80.2749 53.2948 82.7538 46.6809 81.4061C43.922 80.8439 41.078 80.8439 38.3191 81.4061C31.7052 82.7538 24.8946 80.2749 20.6944 74.9912C18.9423 72.7872 16.7637 70.9591 14.2889 69.6164C8.35608 66.3975 4.73224 60.1208 4.91097 53.3733C4.98553 50.5587 4.49168 47.758 3.45897 45.1386C0.983253 38.8592 2.2418 31.7216 6.7159 26.6677C8.5822 24.5595 10.0042 22.0966 10.8968 19.4262C13.0366 13.0246 18.5886 8.36583 25.2646 7.37016Z" stroke="white" stroke-width="3"/>
</svg>
